<svg xmlns="http://www.w3.org/2000/svg" version="1.1" xmlns:xlink="http://www.w3.org/1999/xlink" width="1000" height="1000"><style>
    #light-icon {
      display: inline;
    }
    #dark-icon {
      display: none;
    }

    @media (prefers-color-scheme: dark) {
      #light-icon {
        display: none;
      }
      #dark-icon {
        display: inline;
      }
    }
  </style><g id="light-icon"><svg xmlns="http://www.w3.org/2000/svg" version="1.1" xmlns:xlink="http://www.w3.org/1999/xlink" width="1000" height="1000"><g><g transform="matrix(1.4265945760874217,0,0,1.4265945760874217,52.61280796610407,0)"><svg xmlns="http://www.w3.org/2000/svg" version="1.1" xmlns:xlink="http://www.w3.org/1999/xlink" width="627.21" height="700.97"><svg id="Layer_1" data-name="Layer 1" xmlns="http://www.w3.org/2000/svg" viewBox="0 0 627.21 700.97"><defs><style>.cls-1{fill:#fff;}</style></defs><path class="cls-1" d="M509.19,377.62Q494.42,379.3,471,386a255.78,255.78,0,0,1-26.67,6.35q-9.49,1.54-15.85-1.17c-4.23-1.78-6.37-5.88-6.37-12.29a44.4,44.4,0,0,1,8.46-25.9,68.84,68.84,0,0,1,22.55-20.3c10.78-6.25,19.41-8.54,26-7s10,6.44,10.48,14.42l53-30.72q-2.45-30.94-25.68-35.57t-60.38,16.93a207.36,207.36,0,0,0-44.08,33.93q-19.31,19.63-29.94,41.63t-10.67,43.37q0,22.71,10.48,30.22t25.15,5.74q14.61-1.72,38-8.42a259.67,259.67,0,0,1,27-6.86c6.58-1.18,12-.7,16.37,1.37s6.54,6.64,6.54,13.75q0,13.09-9.63,26.74t-26.51,23.45c-11,6.37-19.69,8.55-26,6.46s-9.81-7.87-10.49-17.33l-51.63,29.9q.33,21.82,12.05,31.23t31.84,6.34q20.1-3,45.26-17.62a192.1,192.1,0,0,0,45.77-36.31q19.29-21,29.25-43.27t10-41.58q0-22.39-10.67-30T509.19,377.62Z"></path><path class="cls-1" d="M590,147.84,351.15,10.1a74.83,74.83,0,0,0-75.33.14L37.47,147.7A75.57,75.57,0,0,0,0,212.73V488.17a74.82,74.82,0,0,0,37.92,65.3L276,691a75.55,75.55,0,0,0,74.44.27L589.75,553.2c22.93-12.86,37.46-37.88,37.46-65V212.73A75.47,75.47,0,0,0,590,147.84ZM583.1,488.17A30.59,30.59,0,0,1,567.71,515L328.88,652.83a31.42,31.42,0,0,1-30.79,0l-10.53-6.09V441.46a132.79,132.79,0,0,0-66.34-115L44.11,224.16V212.73A31.14,31.14,0,0,1,59.5,185.91L69.74,180l177.39,102.3a132.78,132.78,0,0,0,132.6,0L557.41,180l10.3,5.93a31.14,31.14,0,0,1,15.39,26.82Z"></path></svg></svg></g></g></svg></g><g id="dark-icon"><svg xmlns="http://www.w3.org/2000/svg" version="1.1" xmlns:xlink="http://www.w3.org/1999/xlink" width="1000" height="1000"><g><g transform="matrix(1.4265945760874217,0,0,1.4265945760874217,52.61280796610407,0)" style="filter: invert(100%)"><svg xmlns="http://www.w3.org/2000/svg" version="1.1" xmlns:xlink="http://www.w3.org/1999/xlink" width="627.21" height="700.97"><svg id="Layer_1" data-name="Layer 1" xmlns="http://www.w3.org/2000/svg" viewBox="0 0 627.21 700.97"><defs><style>.cls-1{fill:#222;}</style></defs><path class="cls-1" d="M509.19,377.62Q494.42,379.3,471,386a255.78,255.78,0,0,1-26.67,6.35q-9.49,1.54-15.85-1.17c-4.23-1.78-6.37-5.88-6.37-12.29a44.4,44.4,0,0,1,8.46-25.9,68.84,68.84,0,0,1,22.55-20.3c10.78-6.25,19.41-8.54,26-7s10,6.44,10.48,14.42l53-30.72q-2.45-30.94-25.68-35.57t-60.38,16.93a207.36,207.36,0,0,0-44.08,33.93q-19.31,19.63-29.94,41.63t-10.67,43.37q0,22.71,10.48,30.22t25.15,5.74q14.61-1.72,38-8.42a259.67,259.67,0,0,1,27-6.86c6.58-1.18,12-.7,16.37,1.37s6.54,6.64,6.54,13.75q0,13.09-9.63,26.74t-26.51,23.45c-11,6.37-19.69,8.55-26,6.46s-9.81-7.87-10.49-17.33l-51.63,29.9q.33,21.82,12.05,31.23t31.84,6.34q20.1-3,45.26-17.62a192.1,192.1,0,0,0,45.77-36.31q19.29-21,29.25-43.27t10-41.58q0-22.39-10.67-30T509.19,377.62Z"></path><path class="cls-1" d="M590,147.84,351.15,10.1a74.83,74.83,0,0,0-75.33.14L37.47,147.7A75.57,75.57,0,0,0,0,212.73V488.17a74.82,74.82,0,0,0,37.92,65.3L276,691a75.55,75.55,0,0,0,74.44.27L589.75,553.2c22.93-12.86,37.46-37.88,37.46-65V212.73A75.47,75.47,0,0,0,590,147.84ZM583.1,488.17A30.59,30.59,0,0,1,567.71,515L328.88,652.83a31.42,31.42,0,0,1-30.79,0l-10.53-6.09V441.46a132.79,132.79,0,0,0-66.34-115L44.11,224.16V212.73A31.14,31.14,0,0,1,59.5,185.91L69.74,180l177.39,102.3a132.78,132.78,0,0,0,132.6,0L557.41,180l10.3,5.93a31.14,31.14,0,0,1,15.39,26.82Z"></path></svg></svg></g></g></svg></g></svg>